<?xml version="1.0" encoding="utf-8"?>
<!-- Generator: Adobe Illustrator 21.1.0, SVG Export Plug-In . SVG Version: 6.00 Build 0)  -->
<svg version="1.1" id="Layer_1" xmlns="http://www.w3.org/2000/svg" xmlns:xlink="http://www.w3.org/1999/xlink" x="0px" y="0px"
	 viewBox="0 0 1920 1280" style="enable-background:new 0 0 1920 1280;" xml:space="preserve">
<style type="text/css">
	.st0{fill:url(#SVGID_1_);}
	.st1{fill:#FFFFFF;}
	.st2{fill:url(#SVGID_2_);}
	.st3{opacity:0.8;fill:#53483F;enable-background:new    ;}
</style>
<g>
	
		<linearGradient id="SVGID_1_" gradientUnits="userSpaceOnUse" x1="927.6" y1="-464.8" x2="927.6" y2="-530.6" gradientTransform="matrix(1 0 0 -1 0 516)">
		<stop  offset="0" style="stop-color:#FFFFFF"/>
		<stop  offset="1" style="stop-color:#000000"/>
	</linearGradient>
	<rect x="832.3" y="980.8" class="st0" width="190.6" height="65.8"/>
	<rect x="494.1" y="229.7" class="st1" width="958.5" height="751.9"/>
</g>
<g id="Layer_1_1_">
	
		<radialGradient id="SVGID_2_" cx="805.2393" cy="819.0605" r="897.7031" gradientTransform="matrix(-2.2283 0 0 1.486 3023.9028 -257.2817)" gradientUnits="userSpaceOnUse">
		<stop  offset="0" style="stop-color:#8C806C"/>
		<stop  offset="1" style="stop-color:#211818"/>
	</radialGradient>
	<rect x="0.1" y="-0.4" class="st2" width="1919.9" height="1280.4"/>
</g>
<image style="display:none;overflow:visible;enable-background:new    ;" width="1920" height="1280" xlink:href="../DEV/public/img/bgi.png" >
</image>
<g>
	<path class="st3" d="M861.5,506.5c0,39.3,28.7,64.7,62.1,64.7H969h0.2V440.1h-44.9C890.3,440.1,861.5,467.4,861.5,506.5z"/>
	<path class="st3" d="M1118.9,482.9L966.5,330.5c-12.5-12.5-32.8-12.5-45.2,0l-35.3,35.3h-64.5c-17.6,0-31.9,14.3-31.9,31.9v215.6
		c0,17.6,14.3,31.9,31.9,31.9h64.5l35.3,35.3c12.5,12.5,32.8,12.5,45.2,0l152.5-152.5C1131.4,515.7,1131.4,495.4,1118.9,482.9z
		 M922.6,619.9H821V392.4h100.9c65.6,0,118.7,45.9,118.7,114.7C1040.6,575.6,987.8,619.9,922.6,619.9z"/>
</g>
</svg>
