<?xml version="1.0" encoding="utf-8"?>
<!-- Generator: Adobe Illustrator 21.0.2, SVG Export Plug-In . SVG Version: 6.00 Build 0)  -->
<svg version="1.1" id="Layer_1" xmlns="http://www.w3.org/2000/svg" xmlns:xlink="http://www.w3.org/1999/xlink" x="0px" y="0px"
	 viewBox="0 0 130 130" style="enable-background:new 0 0 130 130;" xml:space="preserve">
<style type="text/css">
	.st0{opacity:0.8;}
	.st1{fill:#FDB913;}
</style>
<g>
	<path class="st0" d="M119.2,57.4L67.4,5.6c-4.2-4.2-11.1-4.2-15.3,0l-12,12H18.2c-6,0-10.9,4.9-10.9,10.9v73.2
		c0,6,4.9,10.9,10.9,10.9h21.9l12,12c4.2,4.2,11.1,4.2,15.3,0l51.8-51.8C123.4,68.5,123.4,61.6,119.2,57.4z"/>
	<path class="st1" d="M52.3,26.7H18.1v77.2h34.5c22.1,0,40-15,40-38.3C92.6,42.3,74.5,26.7,52.3,26.7z M68.3,87.4H52.9
		c-11.3,0-21.1-8.7-21.1-22c0-13.3,9.8-22.5,21.3-22.5h15.2V87.4z"/>
</g>
</svg>
