<?xml version="1.0" encoding="utf-8"?>
<!-- Generator: Adobe Illustrator 21.0.2, SVG Export Plug-In . SVG Version: 6.00 Build 0)  -->
<svg version="1.1" id="Capa_1" xmlns="http://www.w3.org/2000/svg" xmlns:xlink="http://www.w3.org/1999/xlink" x="0px" y="0px"
	 viewBox="0 0 485.2 485.2" style="enable-background:new 0 0 485.2 485.2;" xml:space="preserve">
<style type="text/css">
	.st0{fill:#511DA0;}
</style>
<g>
	<path class="st0" d="M224.6,242.9h44.2c1.9,0,3.5-1.6,3.5-3.5v-95.1c0-1.9-1.6-3.5-3.5-3.5h-44.2c-1.9,0-3.5,1.6-3.5,3.5v95.1
		C221.2,241.4,222.7,242.9,224.6,242.9z"/>
	<path class="st0" d="M224.6,319.5h44.2c1.9,0,3.5-1.6,3.5-3.5v-44.2c0-1.9-1.6-3.5-3.5-3.5h-44.2c-1.9,0-3.5,1.6-3.5,3.5V316
		C221.2,318,222.7,319.5,224.6,319.5z"/>
	<path class="st0" d="M235.9,11.9C114,15.6,15.9,113.7,12.2,235.6C8.2,368.3,117.6,477.7,250.3,473.7
		c121.9-3.7,220-101.8,223.7-223.7C478,117.3,368.6,7.8,235.9,11.9z M400.4,341.2c-6.4,11-18.2,16.7-30.2,15.9v0.1H121.9
		c-3,0.1-6.2-0.2-9.3-1c-17.1-4.6-27.3-22.2-22.7-39.3c0.9-3.5,2.5-6.8,4.4-9.7V307L218.5,92c1.4-2.7,3.2-5.3,5.5-7.5
		c12.5-12.5,32.9-12.5,45.4,0c2.7,2.6,4.6,5.6,6.2,8.8h0.1l124.2,215C405.9,317.9,406.4,330.6,400.4,341.2z"/>
</g>
</svg>
