<?xml version="1.0" encoding="utf-8"?>
<!-- Generator: Adobe Illustrator 21.1.0, SVG Export Plug-In . SVG Version: 6.00 Build 0)  -->
<svg version="1.1" id="Layer_1" xmlns="http://www.w3.org/2000/svg" xmlns:xlink="http://www.w3.org/1999/xlink" x="0px" y="0px"
	 viewBox="0 0 200 200" style="enable-background:new 0 0 200 200;" xml:space="preserve">
<style type="text/css">
	.st0{display:none;fill:#28241F;}
	.st1{fill:#511DA0;}
</style>
<circle class="st0" cx="100.4" cy="100.2" r="98.6"/>
<g>
	<path class="st1" d="M188.4,130.3c-3.1,7.5-7.8,13.3-16.3,15c-1.8,0.4-3.7,0.5-5.6,0.5c-12.8,0-25.6,0-39,0
		c-0.1,1.7-0.2,3.2-0.2,4.7c-0.1,6.8-1.9,8.6-8.9,8.6c-7.9,0-15.9,0-23.8,0c-5.9,0-8.3-2.4-8.4-8.4c0-1.4,0-2.9,0-4.8
		c-4.4,0-8.6,0-13.1,0c0-9.4,0-18.3,0-27.8c1.5,0,3.1,0,4.6,0c29.4,0,58.8,0,88.2,0c6.5,0,8.5-2,8.5-8.5c0-23.1,0-46.1,0-69.2
		c0-8.5-1.7-10.2-10.5-10.2c-28.4,0-56.8,0-85.2,0c-1.7,0-3.4,0-5.5,0c0-4.5,0-8.7,0-13.7c1.6,0,3.2,0,4.9,0
		c28.1,0,56.2,0.3,84.3-0.2C175,16.1,184,20,188.2,32.4C188.4,65.1,188.4,97.7,188.4,130.3z"/>
	<path class="st1" d="M73.4,179.6c-0.1-2.4-0.4-4.9-0.3-7.3c0.3-4.1,2.7-6.5,6.7-6.5c18.1-0.1,36.2-0.1,54.3,0
		c3.8,0,6.5,2.4,6.8,6.5c0.2,2.4,0,4.9-0.1,7.3C118.4,179.6,95.9,179.6,73.4,179.6z"/>
	<path class="st1" d="M59.5,25c0-6-2.3-8.3-8.3-8.4c-9.6-0.1-19.3,0.1-28.9-0.1c-4.1-0.1-7.6,0.7-10.3,3.9c0,53.1,0,106.1,0,159.2
		c14.5,0,28.9,0,43.3,0c3.4-2.1,4.4-5.1,4.4-9.1C59.5,122,59.6,73.5,59.5,25z M35.7,153.5c-5.7,0-10.9-5.3-11-11.2
		c-0.1-6.1,4.7-11,10.8-11.1s11.2,5,11.2,11.2C46.7,148.2,41.4,153.6,35.7,153.5z"/>
</g>
</svg>
