<?xml version="1.0" encoding="utf-8"?>
<!-- Generator: Adobe Illustrator 21.0.2, SVG Export Plug-In . SVG Version: 6.00 Build 0)  -->
<svg version="1.1" id="Layer_1" xmlns="http://www.w3.org/2000/svg" xmlns:xlink="http://www.w3.org/1999/xlink" x="0px" y="0px"
	 viewBox="0 0 200 200" style="enable-background:new 0 0 200 200;" xml:space="preserve">
<style type="text/css">
	.st0{display:none;fill:#28241F;}
	.st1{fill:#333333;}
</style>
<circle class="st0" cx="100.4" cy="100.2" r="98.6"/>
<path class="st1" d="M180.7,87.6c-9.8-3.1-20.3,2.2-23.6,11.9l-11.8-0.9c-0.8-10.3-6.6-19.8-15.6-25.2l13.8-31.9
	c9.1,1.3,18.1-4,20.9-13c3.2-10-2.4-20.7-12.4-23.9C142,1.4,131.3,7,128.1,17c-2.5,7.8,0.4,16,6.6,20.7l-13.8,31.9
	c-9-2.3-18.2-0.6-25.6,4.1L81.5,58.3c1-1.5,1.8-3,2.4-4.8c3.2-10-2.4-20.7-12.4-23.9c-10-3.1-20.7,2.4-23.8,12.5
	C44.4,52.2,49.9,62.8,60,66c5,1.6,10.1,1,14.4-1.2L88,80c-2.8,3.2-5,7.1-6.3,11.4c-2.3,7.2-1.9,14.6,0.6,21.2l-40.6,22.2
	c-2.1-2.2-4.8-4.1-7.9-5c-10-3.2-20.7,2.4-23.9,12.4s2.4,20.7,12.4,23.9c10,3.1,20.7-2.4,23.8-12.5c1.1-3.5,1.1-7.1,0.2-10.5
	L86.9,121c3.9,5.2,9.4,9.2,16.1,11.3c5.9,1.8,11.9,1.9,17.4,0.6l14.1,32.3c-4.9,3.8-7.9,9.9-7.3,16.6c0.8,10.5,10,18.3,20.5,17.4
	c10.5-0.8,18.3-10,17.4-20.5c-0.8-10.5-10-18.3-20.5-17.4c-0.4,0-0.8,0.2-1.3,0.2l-14.1-32.2c6.7-4,12-10.3,14.6-18.3
	c0.3-1,0.5-1.9,0.8-2.9l11.7,0.9c1.2,6.8,5.9,12.6,12.9,14.8c10,3.1,20.7-2.4,23.8-12.5C196.3,101.4,190.7,90.7,180.7,87.6z"/>
</svg>
