<?xml version="1.0" encoding="utf-8"?>
<!-- Generator: Adobe Illustrator 21.1.0, SVG Export Plug-In . SVG Version: 6.00 Build 0)  -->
<svg version="1.1" id="Capa_1" xmlns="http://www.w3.org/2000/svg" xmlns:xlink="http://www.w3.org/1999/xlink" x="0px" y="0px"
	 viewBox="0 0 485.2 485.2" style="enable-background:new 0 0 485.2 485.2;" xml:space="preserve">
<style type="text/css">
	.st0{fill:#511DA0;}
</style>
<title>dislike [#1387]</title>
<desc>Created with Sketch.</desc>
<path class="st0" d="M473.6,242.6c0-127.6-103.4-231-231-231s-231,103.4-231,231s103.4,231,231,231S473.6,370.2,473.6,242.6z
	 M301.1,362.8H163.2c-18.4,0-34.4-12-38.6-29.1l-25.2-90.1c-5.7-23.6,13.1-46.3,38.6-46.3h76.2v-80.6c0-16.4,14-29.7,31.2-29.7
	c15.4,0,28.5,10.7,30.8,25.2l24.9,85.4V362.8z M388,362.8h-57.9V197.4H388V362.8z"/>
</svg>
