<?xml version="1.0" encoding="utf-8"?>
<!-- Generator: Adobe Illustrator 21.0.2, SVG Export Plug-In . SVG Version: 6.00 Build 0)  -->
<svg version="1.1" id="Capa_1" xmlns="http://www.w3.org/2000/svg" xmlns:xlink="http://www.w3.org/1999/xlink" x="0px" y="0px"
	 viewBox="0 0 485.2 485.2" style="enable-background:new 0 0 485.2 485.2;" xml:space="preserve">
<style type="text/css">
	.st0{fill:#511DA0;}
</style>
<path class="st0" d="M242.6,11.6c-127.6,0-231,103.4-231,231s103.4,231,231,231s231-103.4,231-231S370.2,11.6,242.6,11.6z
	 M201.6,289.6c0,4-2,7.5-6.5,9.5c-1,0-2.5,0.5-4,0.5c-3,0-5-1-7-3c-82.9-82.9,0,0-82.9-82.9c-2-2-3-4-3-7c0-2.5,1-5,3-7
	c82.9-82.9,0,0,82.9-82.9c3-3,6.5-4.5,11.1-2.5c4,2,6.5,5,6.5,9.5c0,11.6,0,0,0,11.6c-64.3,64.3,0,0-64.3,64.3c-2,2-3,4-3,7
	c0,2.5,1,5,3,7c64.3,64.3,0,0,64.3,64.3C201.6,289.6,201.6,278,201.6,289.6z M385.1,305.7c-2,8-4,15.6-6.5,22.6
	c-2,6.5-4.5,13.1-7.5,20.1c-3,6.5-5,11.6-6.5,14.6c-1.5,3-2.5,5-3.5,6.5c-0.5,1.5-2,2.5-4.5,2.5c-0.5,0-1,0-1.5,0
	c-2.5-1-4-2.5-3.5-5.5c4.5-43.2-1-73.4-17.1-91.5c-7-7.5-16.1-13.6-27.6-17.6c-11.1-4-25.6-7-43.2-8.5c0,40.7,0,0,0,40.7
	c0,4-2,7.5-6,9.5c-1.5,0-3,0.5-4,0.5c-3,0-5.5-1-7.5-3c-82.4-82.9,0,0-82.4-82.9c-2-2-3.5-4-3.5-7c0-2.5,1-5,3.5-7
	c82.4-82.9,0,0,82.4-82.9c3-3,6.5-4.5,11.6-2.5c4,2,6,5,6,9.5c0,42.7,0,0,0,42.7c44.2,3,76.4,14.6,97,35.7
	c18.1,18.1,27.1,45.7,27.1,81.9C387.6,290.1,387.1,297.6,385.1,305.7z"/>
</svg>
