<?xml version="1.0" encoding="utf-8"?>
<!-- Generator: Adobe Illustrator 21.0.2, SVG Export Plug-In . SVG Version: 6.00 Build 0)  -->
<svg version="1.1" id="Capa_1" xmlns="http://www.w3.org/2000/svg" xmlns:xlink="http://www.w3.org/1999/xlink" x="0px" y="0px"
	 viewBox="0 0 485.2 485.2" style="enable-background:new 0 0 485.2 485.2;" xml:space="preserve">
<style type="text/css">
	.st0{fill:#511DA0;}
</style>
<path class="st0" d="M242.6,11.6c-127.6,0-231,103.4-231,231s103.4,231,231,231s231-103.4,231-231S370.2,11.6,242.6,11.6z
	 M239.8,296.6c-2,2-4.5,3-7.5,3c-1,0-2.5-0.5-4-0.5c-4-2-6-5.5-6-9.5c0-40.7,0,0,0-40.7c-17.6,1.5-32.2,4.5-43.2,8.5
	c-11.6,4-20.6,10-27.6,17.6c-16.1,18.1-21.6,48.2-17.1,91.5c0.5,3-1,4.5-3.5,5.5c-0.5,0-1,0-1.5,0c-2.5,0-4-1-4.5-2.5
	c-1-1.5-2-3.5-3.5-6.5c-1.5-3-3.5-8-6.5-14.6c-3-7-5.5-13.6-7.5-20.1c-2.5-7-4.5-14.6-6.5-22.6c-2-8-2.5-15.6-2.5-21.6
	c0-36.2,9-63.8,27.1-81.9c20.6-21.1,52.8-32.7,97-35.7c0-42.7,0,0,0-42.7c0-4.5,2-7.5,6-9.5c5-2,8.5-0.5,11.6,2.5
	c82.4,82.9,0,0,82.4,82.9c2.5,2,3.5,4.5,3.5,7c0,3-1.5,5-3.5,7C239.8,296.6,322.2,213.7,239.8,296.6z M384.6,213.7
	c-82.9,82.9,0,0-82.9,82.9c-2,2-4,3-7,3c-1.5,0-3-0.5-4-0.5c-4.5-2-6.5-5.5-6.5-9.5c0-11.6,0,0,0-11.6c64.3-64.3,0,0,64.3-64.3
	c2-2,3-4.5,3-7c0-3-1-5-3-7c-64.3-64.3,0,0-64.3-64.3c0-11.6,0,0,0-11.6c0-4.5,2.5-7.5,6.5-9.5c4.5-2,8-0.5,11.1,2.5
	c82.9,82.9,0,0,82.9,82.9c2,2,3,4.5,3,7C387.6,209.7,386.6,211.7,384.6,213.7z"/>
</svg>
