<?xml version="1.0" encoding="utf-8"?>
<!-- Generator: Adobe Illustrator 21.0.2, SVG Export Plug-In . SVG Version: 6.00 Build 0)  -->
<svg version="1.1" id="Capa_1" xmlns="http://www.w3.org/2000/svg" xmlns:xlink="http://www.w3.org/1999/xlink" x="0px" y="0px"
	 viewBox="0 0 485.2 485.2" style="enable-background:new 0 0 485.2 485.2;" xml:space="preserve">
<style type="text/css">
	.st0{fill:#333333;}
</style>
<g>
	<path class="st0" d="M447.6,465.5c-5.9-1.1-12-2-17.8-3.4c-13.3-3.1-13.2-3.2-19.7,8.7c-2.6,4.6-5.5,9.2-8.3,13.7
		c-0.7,0-1.2-0.1-1.9-0.1c-10.2-22.9-20.4-45.7-31-69.3c-10.5,23.6-20.7,46.3-31.4,70.2c-2-2.3-3.4-3.6-4.4-5.2
		c-3.3-5.6-6.6-11.2-9.5-16.9c-1.6-3.3-3.5-4.2-7.2-3.2c-7.2,2-14.6,3.4-21.9,4.9c-1.4,0.3-3,0-5.5,0c10-22.5,19.7-44.4,29.5-66.4
		c0.9,0.1,1.6,0.3,2.5,0.3c5-0.4,8.3,1.4,11.6,5.7c4.5,5.7,11.3,6.4,18.2,4.1c1.4-0.4,3.6-0.4,4.8,0.3c8.1,5.4,17.4,5.8,25.3,0.3
		c2.3-1.5,3.8-1.6,6.4-0.7c6.6,2.6,14,1,18.1-4.4c2.7-3.7,5.5-6.1,10.3-5.3c0.9,0.2,2-0.3,3.4-0.5c9.8,21.8,19.5,43.7,29.2,65.6
		C448.2,464.3,448,464.8,447.6,465.5z"/>
	<path class="st0" d="M441.7,328.5c-0.7-1.2-1-3.2-0.4-4.4c3.9-8.8,2.6-15.1-4.4-21.6c-1-0.9-1.8-2.9-1.6-4.2
		c0.8-9.1-2.9-15.1-11.2-18.4c-1.3-0.5-2.9-1.9-3.2-3.1c-2.7-9.4-7.1-12.9-17.1-13.6c-1.3-0.1-3.1-1.1-3.9-2.2
		c-5.6-7.7-11.6-9.5-20.9-6.7c-1.1,0.3-2.6,0.3-3.6-0.2c-10.2-6.1-15.1-5.8-24.2,2c-11.4-3.6-15.2-2.2-22.9,7.9
		c-0.8,1-2.5,1.4-3.8,1.6c-8.9,1.1-13.9,5.7-15.8,14.3c-0.3,1.5-1.6,3.3-3,3.9c-8,3.9-11.2,9.8-10.2,18.6c0.2,1.6-0.5,3.9-1.6,5.2
		c-6,6.4-7,13.4-3,21.1c0.7,1.2,1,3.2,0.4,4.4c-3.9,9.1-2.9,14.7,4.7,21.9c0.9,0.8,1.5,2.3,1.5,3.4c-0.4,10.3,1.9,14.4,10.9,19.1
		c1.4,0.8,2.9,2.3,3.3,3.7c2.9,8.6,7.9,12.4,16.9,12.8c1.5,0.1,3.4,1.2,4.3,2.4c5.3,7.2,11.8,9.3,20.6,6.6c1.3-0.4,3.3-0.1,4.4,0.7
		c7.7,5.3,14.5,5,21.6-0.5c1.1-0.9,3.3-1.3,4.7-1c8.4,2.2,14.9-0.3,19.7-7.7c0.9-1.3,2.6-2.5,4.1-2.7c9.4-1.3,13.9-5.4,16-14.5
		c0.3-1.4,1.4-3.1,2.7-3.7c9.1-4.5,11.5-9,10.4-19.2c-0.1-1.4,0.8-3.5,1.8-4.6C445,343.1,446,336.2,441.7,328.5z M369.1,381.3
		c-33.6,1.5-55.7-25.3-55.7-52.7c0.1-29.2,23.7-52.7,52.9-52.6c29.3,0,53,23.5,52.9,52.6C418.9,359.2,395.3,380,369.1,381.3z"/>
	<path class="st0" d="M366.7,287.8c22.5,0.1,40.7,18.5,40.5,40.9c-0.1,22-18.9,40.9-40.4,40.7c-23-0.2-41.7-18.6-41.4-41
		C325.6,305.6,343.8,287.7,366.7,287.8z"/>
</g>
<path class="st0" d="M461.3,303.7c-6.7-17.3-17-39.3-34.8-55.6c-0.3-51.5-0.2-148-0.2-199.5c0-3.2,0-6.4,0-10.2
	c-122.4,0-244.2,0-366.8,0c0,86.9,0,228.9,0,316.8c3.7,0,6.9,0,10,0c68.5,0,137,0.1,205.5-0.1c1,9.9,14.6,34.6,11.8,34.6
	c-74.4,0-148.9-0.6-223.3,0.3c-24.9,0.3-39.9-18.3-39.7-39.5c0.8-84.7,0.7-224.4,0.1-309.1c-0.2-21.3,15-39,38.7-39
	c120.6,0.3,241.1,0.1,361.7,0.2c22.4,0,37,14.7,37,36.9c0,71.2,0,187.4,0,258.6C461.3,300,461.3,301.9,461.3,303.7z"/>
<path class="st0" d="M242.8,240.7c-40.2,0-80.4-0.2-120.6,0.1c-7.5,0.1-9.9-2.4-9.8-9.8c0.3-19.5-0.8-16.5,16.4-16.5
	c77.7-0.1,92.5,0,170.2,0c12.1,0,12.1,0,12.1,11.8c0,1.9-0.2,3.8,0,5.7c0.8,6.9-2.4,8.8-8.9,8.8c-35.9-0.2-8.9-0.1-44.7-0.1
	C252.5,240.7,247.6,240.7,242.8,240.7z"/>
<path class="st0" d="M243.6,170.3c-40.5,0-80.9-0.2-121.4,0.2c-7.6,0.1-9.9-2.4-9.9-9.6c0-16.5-0.3-16.5,15.7-16.5
	c78.5,0,157,0.1,235.5-0.2c8.2,0,10.8,2.2,10.5,10.4c-0.7,17.7,1.7,15.7-15.6,15.7C320.2,170.3,281.9,170.3,243.6,170.3z"/>
<path class="st0" d="M243.6,100.1c-40.5,0-80.9-0.2-121.4,0.2c-7.6,0.1-9.9-2.4-9.9-9.6c0-16.5-0.3-16.5,15.7-16.5
	c78.5,0,157,0.1,235.5-0.2c8.2,0,10.8,2.2,10.5,10.4c-0.7,17.7,1.7,15.7-15.6,15.7C320.2,100.2,281.9,100.1,243.6,100.1z"/>
<path class="st0" d="M177.1,284.4c18.3,0,36.6-0.1,54.9,0.1c10.4,0.1,10.8,0.8,11,11.1c0,2.2-0.1,4.3,0.1,6.5
	c0.6,6.5-1.9,9.2-8.7,9.2c-24.4-0.3-48.8,0-73.2-0.1c-13.9,0-27.8-0.3-41.7-0.2c-6.3,0.1-7.5-3.2-7.5-8.7
	c-0.1-17.5,0.2-17.8,17.7-17.5c15.9,0.2,31.7,0,47.6,0C177.1,284.6,177.1,284.5,177.1,284.4z"/>
</svg>
