<?xml version="1.0" encoding="utf-8"?>
<!-- Generator: Adobe Illustrator 21.0.2, SVG Export Plug-In . SVG Version: 6.00 Build 0)  -->
<svg version="1.1" id="Capa_1" xmlns="http://www.w3.org/2000/svg" xmlns:xlink="http://www.w3.org/1999/xlink" x="0px" y="0px"
	 viewBox="0 0 485.2 485.2" style="enable-background:new 0 0 485.2 485.2;" xml:space="preserve">
<style type="text/css">
	.st0{fill:#333333;}
</style>
<g>
	<path class="st0" d="M414.2,129.9V72.7H13.8v314.7c0,0,0,57.2,57.2,57.2h357.5c0,0,43-0.9,43-57.2V129.9H414.2z M71,415.9
		c-28.5,0-28.5-28.5-28.5-28.5v-286h343.2v286c0,13.1,4,22.3,9.6,28.5H71z M71,415.9"/>
	<rect x="71" y="158.5" class="st0" width="286" height="28.6"/>
	<rect x="228.3" y="330.1" class="st0" width="100.1" height="28.6"/>
	<rect x="228.3" y="272.9" class="st0" width="128.7" height="28.6"/>
	<rect x="228.3" y="215.7" class="st0" width="128.7" height="28.6"/>
	<rect x="71" y="215.7" class="st0" width="128.7" height="143"/>
</g>
</svg>
