<?xml version="1.0" encoding="utf-8"?>
<!-- Generator: Adobe Illustrator 21.0.2, SVG Export Plug-In . SVG Version: 6.00 Build 0)  -->
<svg version="1.1" id="Layer_1" xmlns="http://www.w3.org/2000/svg" xmlns:xlink="http://www.w3.org/1999/xlink" x="0px" y="0px"
	 viewBox="0 0 200 200" style="enable-background:new 0 0 200 200;" xml:space="preserve">
<style type="text/css">
	.st0{display:none;fill:#28241F;}
	.st1{fill:#511DA0;}
</style>
<circle class="st0" cx="100.4" cy="100.2" r="98.6"/>
<g>
	<path class="st1" d="M180.7,87.6c-9.8-3.1-20.3,2.2-23.6,11.9L146,98.7c0,0.7,0.1,1.5,0.1,2.2c0,2.5-0.3,4.9-0.8,7.3l11.1,0.9
		c1.2,6.8,5.9,12.6,12.9,14.8c10,3.1,20.7-2.4,23.8-12.5C196.3,101.4,190.7,90.7,180.7,87.6z"/>
	<path class="st1" d="M134.7,37.7l-13.4,30.9c3.1,0.8,6.1,2.1,8.8,3.8l13.4-30.9c9.1,1.3,18.1-4,20.9-13c3.2-10-2.4-20.7-12.4-23.9
		C142,1.4,131.3,7,128.1,17C125.6,24.8,128.5,33,134.7,37.7z"/>
	<path class="st1" d="M60,66c5,1.6,10.1,1,14.4-1.2l12.8,14.3c2.1-2.4,4.5-4.6,7.3-6.3l-13-14.5c1-1.5,1.8-3,2.4-4.8
		c3.2-10-2.4-20.7-12.4-23.9c-10-3.1-20.7,2.4-23.8,12.5C44.4,52.2,49.9,62.8,60,66z"/>
	<path class="st1" d="M144.6,161.3c-0.4,0-0.8,0.2-1.3,0.2l-13.9-31.7c-2.7,1.6-5.7,2.8-8.8,3.6l13.9,31.9
		c-4.9,3.8-7.9,9.9-7.3,16.6c0.8,10.5,10,18.3,20.5,17.4c10.5-0.8,18.3-10,17.4-20.5C164.3,168.2,155.1,160.4,144.6,161.3z"/>
	<path class="st1" d="M86.2,121.4c-2-2.5-3.6-5.3-4.7-8.3l-39.8,21.7c-2.1-2.2-4.8-4.1-7.9-5c-10-3.2-20.7,2.4-23.9,12.4
		c-3.2,10,2.4,20.7,12.4,23.9c10,3.1,20.7-2.4,23.8-12.5c1.1-3.5,1.1-7.1,0.2-10.5L86.2,121.4z"/>
</g>
</svg>
