<?xml version="1.0" encoding="utf-8"?>
<!-- Generator: Adobe Illustrator 21.1.0, SVG Export Plug-In . SVG Version: 6.00 Build 0)  -->
<svg version="1.1" id="Capa_1" xmlns="http://www.w3.org/2000/svg" xmlns:xlink="http://www.w3.org/1999/xlink" x="0px" y="0px"
	 viewBox="0 0 485.2 485.2" style="enable-background:new 0 0 485.2 485.2;" xml:space="preserve">
<style type="text/css">
	.st0{fill:#45701C;}
</style>
<path class="st0" d="M60.7,75.8V25.2c0-8.4,6.8-15.2,15.2-15.2C84.2,10,91,16.8,91,25.2v50.7C91,84.2,84.2,91,75.8,91
	S60.7,84.2,60.7,75.8z"/>
<path class="st0" d="M318.4,91c8.4,0,15.2-6.8,15.2-15.2V25.2c0-8.4-6.8-15.2-15.2-15.2c-8.4,0-15.2,6.8-15.2,15.2v50.7
	C303.3,84.2,310,91,318.4,91z"/>
<path class="st0" d="M103.1,182H78.8c-10,0-18.2,8.1-18.2,18.2v24.3c0,10,8.1,18.2,18.2,18.2h24.3c10,0,18.2-8.1,18.2-18.2v-24.3
	C121.3,190.1,113.2,182,103.1,182z"/>
<path class="st0" d="M78.8,333.6h24.3c10,0,18.2-8.1,18.2-18.2v-24.3c0-10-8.1-18.2-18.2-18.2H78.8c-10,0-18.2,8.1-18.2,18.2v24.3
	C60.7,325.4,68.8,333.6,78.8,333.6z"/>
<path class="st0" d="M169.8,243.6h24.3c10,0,18.2-8.1,18.2-18.2v-24.3c0-10-8.1-18.2-18.2-18.2h-24.3c-10,0-18.2,8.1-18.2,18.2v24.3
	C151.6,235.5,159.8,243.6,169.8,243.6z"/>
<path class="st0" d="M169.8,334.6h24.3c10,0,18.2-8.1,18.2-18.2v-24.3c0-10-8.1-18.2-18.2-18.2h-24.3c-10,0-18.2,8.1-18.2,18.2v24.3
	C151.6,326.4,159.8,334.6,169.8,334.6z"/>
<path class="st0" d="M30.3,360.9V151.6h333.6v60.7h30.3V94c0-18.4-14.7-33.3-32.8-33.3h-12.6v15.2c0,16.7-13.6,30.3-30.3,30.3
	c-16.7,0-30.3-13.6-30.3-30.3V60.7h-182v15.2c0,16.7-13.6,30.3-30.3,30.3S45.6,92.6,45.6,75.9V60.7H32.9C14.7,60.7,0,75.6,0,94
	v266.9c0,18.4,14.7,33.3,32.9,33.3h179.4v-30.3H32.9C31.5,363.9,30.3,362.5,30.3,360.9z"/>
<path class="st0" d="M303.3,225.4v-24.3c0-10-8.1-18.2-18.2-18.2h-24.3c-10,0-18.2,8.1-18.2,18.2v24.3c0,10,8.1,18.2,18.2,18.2h24.3
	C295.1,243.6,303.3,235.5,303.3,225.4z"/>
<g>
	<path class="st0" d="M377.1,341.6h-60.7c-8.4,0-15.2,6.8-15.2,15.2c0,8.4,6.8,15.2,15.2,15.2h45.5v45.5c0,8.4,6.8,15.2,15.2,15.2
		c8.4,0,15.2-6.8,15.2-15.2v-60.7C392.2,348.4,385.5,341.6,377.1,341.6z"/>
	<path class="st0" d="M363.9,242.6c-67,0-121.3,54.3-121.3,121.3s54.3,121.3,121.3,121.3s121.3-54.3,121.3-121.3
		S430.9,242.6,363.9,242.6z M363.9,454.9c-50.2,0-91-40.8-91-91s40.8-91,91-91s91,40.8,91,91S414.1,454.9,363.9,454.9z"/>
</g>
</svg>
