<?xml version="1.0" encoding="utf-8"?>
<!-- Generator: Adobe Illustrator 21.0.2, SVG Export Plug-In . SVG Version: 6.00 Build 0)  -->
<svg version="1.1" id="Capa_1" xmlns="http://www.w3.org/2000/svg" xmlns:xlink="http://www.w3.org/1999/xlink" x="0px" y="0px"
	 viewBox="0 0 485.2 485.2" style="enable-background:new 0 0 485.2 485.2;" xml:space="preserve">
<style type="text/css">
	.st0{fill:#511DA0;}
</style>
<path class="st0" d="M242.6,11.6c-127.6,0-231,103.4-231,231s103.4,231,231,231s231-103.4,231-231S370.2,11.6,242.6,11.6z
	 M366.7,357c0,0.5-0.5,2-1.5,4c-1,1.5-1.5,3-2.5,5c0,1-1,2.5-2,3.5c-1,1.5-2.5,2.5-4.5,2.5c-1.5,0-2.5-0.5-3.5-1.5c-1-1-1.5-2-1.5-4
	c0-1,0-2.5,0.5-4.5c0-1.5,0.5-2.5,0.5-3.5c0-7,0.5-14,0.5-20.1c0-10.5-0.5-20.1-2.5-29.1c-2-8.5-4.5-16-8-22.1
	c-3-6-7.5-11.5-13-16.6c-5-4.5-10.5-8-17.1-11c-6-3-13-5-21.1-7c-8-1.5-16.6-2.5-25.1-3.5c-8-0.5-17.6-1-28.1-1c-36.1,0,0,0-36.1,0
	c0,41.6,0,0,0,41.6c0,2.5-1,5-3,7c-2,2-4.5,3-7.5,3c-2.5,0-5-1-7-3c-82.8-82.8,0,0-82.8-82.8c-2-2-3-4-3-7c0-2.5,1-5,3-7
	c82.8-82.8,0,0,82.8-82.8c2-2,4-3,7-3c3,0,5.5,1,7.5,3c2,2,3,4,3,7c0,41.6,0,0,0,41.6c36.1,0,0,0,36.1,0c76.2,0,123.4,21.6,141,64.7
	c5.5,14,8.5,32.1,8.5,53.7C387.3,302.3,380.8,326.4,366.7,357z"/>
</svg>
