<?xml version="1.0" encoding="utf-8"?>
<!-- Generator: Adobe Illustrator 21.0.2, SVG Export Plug-In . SVG Version: 6.00 Build 0)  -->
<svg version="1.1" xmlns="http://www.w3.org/2000/svg" xmlns:xlink="http://www.w3.org/1999/xlink" x="0px" y="0px"
	 viewBox="0 0 75 75" style="enable-background:new 0 0 75 75;" xml:space="preserve">
<style type="text/css">
	.st0{fill:#EFE3D5;}
	.st1{opacity:0.1;}
	.st2{display:none;}
	.st3{display:inline;}
	.st4{fill:#E24B35;}
	.st5{fill-opacity:0.14;}
	.st6{fill:#FFFFFF;}
	.st7{fill-opacity:0.1;}
	.st8{fill:#8FAF87;}
	.st9{opacity:0.7;}
	.st10{clip-path:url(#SVGID_2_);fill:#65895D;}
	.st11{clip-path:url(#SVGID_4_);fill:#8FAF87;}
	.st12{clip-path:url(#SVGID_4_);}
	.st13{clip-path:url(#SVGID_6_);fill:#65895D;}
</style>
<g id="fundal">
	<g id="Layer_1_1_">
		<g>
			<circle class="st0" cx="37.8" cy="37.8" r="35.5"/>
		</g>
	</g>
	<path class="st1" d="M37.8,4.7v66.2c18.3,0,33.1-14.8,33.1-33.1S56.1,4.7,37.8,4.7z"/>
</g>
<g id="video" class="st2">
	<g class="st3">
		<path id="Shape" class="st4" d="M57.8,50.1c0,1.4-1.2,2.6-2.6,2.6l0,0H20.4c-1.4,0-2.6-1.2-2.6-2.6l0,0V24.9
			c0-1.4,1.2-2.6,2.6-2.6h34.8c1.4,0,2.6,1.2,2.6,2.6V50.1z"/>
		<path id="shadow" class="st5" d="M32.7,29.4L17.8,44.4v5.7c0,1.4,1.1,2.6,2.6,2.6l0,0h10.7l14.9-15l0,0l-13.2,8.1L32.7,29.4"/>
		<path id="Shape-2" class="st6" d="M32.6,29.4v16.3l13.3-8.1L32.6,29.4z"/>
		<path id="shadow-2" class="st7" d="M57.8,37.5h-40v12.6c0,1.4,1.2,2.6,2.6,2.6l0,0h34.8c1.4,0,2.6-1.2,2.6-2.6l0,0V37.5"/>
	</g>
</g>
<g id="forum">
	<path class="st8" d="M37.4,20.5c-11.9,0-21.4,2-21.4,16.4c0,9.1,4,13.3,9.9,15.1v6.5l5.3-5.4c2,0.2,4.1,0.3,6.3,0.3
		c11.9,0,21.5-2,21.5-16.4S49.3,20.5,37.4,20.5z M29.2,39.5c-1.4,0-2.6-1.2-2.6-2.6s1.2-2.6,2.6-2.6c1.4,0,2.6,1.2,2.6,2.6
		S30.6,39.5,29.2,39.5z M37.4,39.5c-1.4,0-2.6-1.2-2.6-2.6s1.2-2.6,2.6-2.6s2.6,1.2,2.6,2.6S38.9,39.5,37.4,39.5z M45.7,39.5
		c-1.4,0-2.6-1.2-2.6-2.6s1.2-2.6,2.6-2.6s2.6,1.2,2.6,2.6S47.1,39.5,45.7,39.5z"/>
	<g class="st9">
		<defs>
			<rect id="SVGID_1_" y="37.5" class="st9" width="75" height="27.6"/>
		</defs>
		<clipPath id="SVGID_2_">
			<use xlink:href="#SVGID_1_"  style="overflow:visible;"/>
		</clipPath>
		<path class="st10" d="M37.4,20.5c-11.9,0-21.4,2-21.4,16.4c0,9.1,4,13.3,9.9,15.1v6.5l5.3-5.4c2,0.2,4.1,0.3,6.3,0.3
			c11.9,0,21.5-2,21.5-16.4S49.3,20.5,37.4,20.5z M29.2,39.5c-1.4,0-2.6-1.2-2.6-2.6s1.2-2.6,2.6-2.6c1.4,0,2.6,1.2,2.6,2.6
			S30.6,39.5,29.2,39.5z M37.4,39.5c-1.4,0-2.6-1.2-2.6-2.6s1.2-2.6,2.6-2.6s2.6,1.2,2.6,2.6S38.9,39.5,37.4,39.5z M45.7,39.5
			c-1.4,0-2.6-1.2-2.6-2.6s1.2-2.6,2.6-2.6s2.6,1.2,2.6,2.6S47.1,39.5,45.7,39.5z"/>
	</g>
	<g>
		<defs>
			<polygon id="SVGID_3_" points="48.9,37.6 5.4,81.1 -4.4,68.8 26.6,37.8 			"/>
		</defs>
		<clipPath id="SVGID_4_">
			<use xlink:href="#SVGID_3_"  style="overflow:visible;"/>
		</clipPath>
		<path class="st11" d="M37.4,20.5c-11.9,0-21.4,2-21.4,16.4c0,9.1,4,13.3,9.9,15.1v6.5l5.3-5.4c2,0.2,4.1,0.3,6.3,0.3
			c11.9,0,21.5-2,21.5-16.4S49.3,20.5,37.4,20.5z M29.2,39.5c-1.4,0-2.6-1.2-2.6-2.6s1.2-2.6,2.6-2.6c1.4,0,2.6,1.2,2.6,2.6
			S30.6,39.5,29.2,39.5z M37.4,39.5c-1.4,0-2.6-1.2-2.6-2.6s1.2-2.6,2.6-2.6s2.6,1.2,2.6,2.6S38.9,39.5,37.4,39.5z M45.7,39.5
			c-1.4,0-2.6-1.2-2.6-2.6s1.2-2.6,2.6-2.6s2.6,1.2,2.6,2.6S47.1,39.5,45.7,39.5z"/>
		<g class="st12">
			<defs>
				<rect id="SVGID_5_" y="37.5" width="75" height="27.6"/>
			</defs>
			<clipPath id="SVGID_6_">
				<use xlink:href="#SVGID_5_"  style="overflow:visible;"/>
			</clipPath>
			<path class="st13" d="M37.4,20.5c-11.9,0-21.4,2-21.4,16.4c0,9.1,4,13.3,9.9,15.1v6.5l5.3-5.4c2,0.2,4.1,0.3,6.3,0.3
				c11.9,0,21.5-2,21.5-16.4S49.3,20.5,37.4,20.5z M29.2,39.5c-1.4,0-2.6-1.2-2.6-2.6s1.2-2.6,2.6-2.6c1.4,0,2.6,1.2,2.6,2.6
				S30.6,39.5,29.2,39.5z M37.4,39.5c-1.4,0-2.6-1.2-2.6-2.6s1.2-2.6,2.6-2.6s2.6,1.2,2.6,2.6S38.9,39.5,37.4,39.5z M45.7,39.5
				c-1.4,0-2.6-1.2-2.6-2.6s1.2-2.6,2.6-2.6s2.6,1.2,2.6,2.6S47.1,39.5,45.7,39.5z"/>
		</g>
	</g>
</g>
</svg>
