<?xml version="1.0" encoding="utf-8"?>
<!-- Generator: Adobe Illustrator 21.1.0, SVG Export Plug-In . SVG Version: 6.00 Build 0)  -->
<svg version="1.1"
	 id="Layer_1" inkscape:version="0.92.1 r15371" sodipodi:docname="icon-duplicate-33.svg" xmlns:cc="http://creativecommons.org/ns#" xmlns:dc="http://purl.org/dc/elements/1.1/" xmlns:inkscape="http://www.inkscape.org/namespaces/inkscape" xmlns:rdf="http://www.w3.org/1999/02/22-rdf-syntax-ns#" xmlns:sodipodi="http://sodipodi.sourceforge.net/DTD/sodipodi-0.dtd" xmlns:svg="http://www.w3.org/2000/svg"
	 xmlns="http://www.w3.org/2000/svg" xmlns:xlink="http://www.w3.org/1999/xlink" x="0px" y="0px" viewBox="0 0 200 200"
	 style="enable-background:new 0 0 200 200;" xml:space="preserve">
<style type="text/css">
	.st0{display:none;fill:#28241F;}
	.st1{fill:#511DA0;}
</style>
<sodipodi:namedview  bordercolor="#666666" borderopacity="1" gridtolerance="10" guidetolerance="10" id="namedview9" inkscape:current-layer="Layer_1" inkscape:cx="100" inkscape:cy="100" inkscape:pageopacity="0" inkscape:pageshadow="2" inkscape:window-height="1017" inkscape:window-maximized="1" inkscape:window-width="1920" inkscape:window-x="-8" inkscape:window-y="-8" inkscape:zoom="1.18" objecttolerance="10" pagecolor="#ffffff" showgrid="false">
	</sodipodi:namedview>
<circle id="circle4" class="st0" cx="100.4" cy="100.2" r="98.6"/>
<circle id="circle4_1_" class="st0" cx="271.1" cy="111.9" r="73.9"/>
<path id="path4496-1" inkscape:connector-curvature="0" sodipodi:nodetypes="ccccsccccccccccccccccccccccccccccccccccccccccccccccccccccc" class="st1" d="
	M70.2,189l-7-6.4l-0.6-23.3L62,136l-20.8-0.6c-13.2-0.4-18.4,0.9-25.7-6.3c-7.8-10.6-5.8-10.3-5.9-69.5L9.5,5h54.1h54.1v17.7v17.7
	h36.4h36.4v77.4v77.4h-58.8H77.2L70.2,189z M174.9,118.8V56.1h-50.6H78v26.3v17.7h-7.8h-7.8V70.3V40.5h13.4h26.3v-6.5V18.8H63.6
	H25.2v50.6v46.3h44.4h57.3l-9.7-9.9l-9.7-9.9l4.4-4.4l8.7-8.7l19.2,20.1c10.6,11.1,19.4,20.7,19.7,21.4c0.3,0.7-8.3,10-19.1,20.7
	l-19.6,19.5l-8.4-8.3l-4.1-4l10.3-10.4l10.3-10.4h-25.4H78v23v27.3h46.3h50.6V118.8z"/>
</svg>
