<?xml version="1.0" encoding="utf-8"?>
<!-- Generator: Adobe Illustrator 21.0.2, SVG Export Plug-In . SVG Version: 6.00 Build 0)  -->
<svg version="1.1" id="Layer_1" xmlns="http://www.w3.org/2000/svg" xmlns:xlink="http://www.w3.org/1999/xlink" x="0px" y="0px"
	 viewBox="0 0 75 75" enable-background="new 0 0 75 75" xml:space="preserve">
<g id="fundal">
	<g id="Layer_1_1_">
		<g>
			<circle fill="#EFE3D5" cx="37.8" cy="37.8" r="35.5"/>
		</g>
	</g>
	<path opacity="0.1" enable-background="new    " d="M37.8,4.7v66.2c18.3,0,33.1-14.8,33.1-33.1S56.1,4.7,37.8,4.7z"/>
</g>
<g id="video" display="none">
	<g display="inline">
		<path id="Shape" fill="#E24B35" d="M57.8,50.1c0,1.4-1.2,2.6-2.6,2.6l0,0H20.4c-1.4,0-2.6-1.2-2.6-2.6l0,0V24.9
			c0-1.4,1.2-2.6,2.6-2.6h34.8c1.4,0,2.6,1.2,2.6,2.6C57.8,24.9,57.8,50.1,57.8,50.1z"/>
		<path id="shadow" fill-opacity="0.14" d="M32.7,29.4l-14.9,15v5.7c0,1.4,1.1,2.6,2.6,2.6l0,0h10.7l14.9-15l0,0l-13.2,8.1
			L32.7,29.4"/>
		<path id="Shape-2" fill="#FFFFFF" d="M32.6,29.4v16.3l13.3-8.1L32.6,29.4z"/>
		<path id="shadow-2" fill-opacity="0.1" d="M57.8,37.5h-40v12.6c0,1.4,1.2,2.6,2.6,2.6l0,0h34.8c1.4,0,2.6-1.2,2.6-2.6l0,0
			L57.8,37.5"/>
	</g>
</g>
<g>
	<g opacity="0.7" enable-background="new    ">
		<g>
			<defs>
				<rect id="SVGID_1_" y="37.5" width="75" height="27.6"/>
			</defs>
			<clipPath id="SVGID_2_">
				<use xlink:href="#SVGID_1_"  overflow="visible"/>
			</clipPath>
		</g>
	</g>
	<g>
		<g>
			<defs>
				<polygon id="SVGID_3_" points="48.9,37.6 5.4,81.1 -4.4,68.8 26.6,37.8 				"/>
			</defs>
			<clipPath id="SVGID_4_">
				<use xlink:href="#SVGID_3_"  overflow="visible"/>
			</clipPath>
		</g>
		<g id="forum" display="none">
			<defs>
				<polygon id="SVGID_5_" points="48.9,37.6 5.4,81.1 -4.4,68.8 26.6,37.8 				"/>
			</defs>
			<clipPath id="SVGID_6_" display="inline">
				<use xlink:href="#SVGID_5_"  overflow="visible"/>
			</clipPath>
			<g display="inline" clip-path="url(#SVGID_6_)">
				<g>
					<defs>
						<rect id="SVGID_7_" y="37.5" width="75" height="27.6"/>
					</defs>
					<clipPath id="SVGID_8_">
						<use xlink:href="#SVGID_7_"  overflow="visible"/>
					</clipPath>
					<path clip-path="url(#SVGID_8_)" fill="#65895D" d="M37.4,20.5c-11.9,0-21.4,2-21.4,16.4c0,9.1,4,13.3,9.9,15.1v6.5l5.3-5.4
						c2,0.2,4.1,0.3,6.3,0.3c11.9,0,21.5-2,21.5-16.4S49.3,20.5,37.4,20.5z M29.2,39.5c-1.4,0-2.6-1.2-2.6-2.6s1.2-2.6,2.6-2.6
						s2.6,1.2,2.6,2.6S30.6,39.5,29.2,39.5z M37.4,39.5c-1.4,0-2.6-1.2-2.6-2.6s1.2-2.6,2.6-2.6s2.6,1.2,2.6,2.6
						S38.9,39.5,37.4,39.5z M45.7,39.5c-1.4,0-2.6-1.2-2.6-2.6s1.2-2.6,2.6-2.6s2.6,1.2,2.6,2.6S47.1,39.5,45.7,39.5z"/>
				</g>
			</g>
		</g>
		<g id="support_1_">
			<g>
				<path fill="#C56794" d="M55.3,18.7L28.5,45.5l4.1,4.1C32.6,49.6,54.7,47.8,55.3,18.7z"/>
				<path fill="#7F67AE" d="M45.4,42.8l-9.6,4.7c0,0,1.3,2.1,1.7,9.5l9.6-9.6C47.1,47.3,46.7,45,45.4,42.8z"/>
				
					<rect x="28.8" y="45.4" transform="matrix(0.7071 -0.7071 0.7071 0.7071 -25.269 35.1273)" fill="#5B4C84" width="1.9" height="5.4"/>
				<path fill="#D593C7" d="M55.3,18.7L28.5,45.5l-4.1-4.1C24.3,41.4,26.2,19.2,55.3,18.7z"/>
				<path fill="#7F67AE" d="M31.2,28.6l-4.7,9.6c0,0-2.1-1.3-9.5-1.7l9.6-9.6C26.7,26.9,29,27.3,31.2,28.6z"/>
				
					<rect x="25" y="41.5" transform="matrix(0.7071 -0.7071 0.7071 0.7071 -23.6534 31.2567)" fill="#8069AC" width="1.9" height="5.4"/>
				<path fill="#EF7B99" d="M24.3,43.9l2.9,2.9l2.9,2.9c-2.1,2.4-5.6,3.9-5.6,3.9c0.8-0.8,1.1-1.3,1.1-1.3c-3,2-6.9,3.1-6.9,3.1
					s1.1-3.9,3.1-6.9c0,0-0.5,0.3-1.3,1.1C20.3,49.6,21.9,46,24.3,43.9z"/>
				<path fill="#F5AE7F" d="M24.9,44.5l2.3,2.3l2.3,2.3c-1.2,1.3-2.7,1.2-2.7,1.2c0.5-0.2,0.6-0.6,0.6-0.6c-1.6,0.8-3.8,0.7-3.8,0.7
					s-0.1-2.2,0.7-3.8c0,0-0.4,0.2-0.6,0.6C23.6,47.3,23.5,45.8,24.9,44.5z"/>
				
					<ellipse transform="matrix(0.7071 -0.7071 0.7071 0.7071 -8.8113 39.7125)" fill="#EFE3D5" cx="43.5" cy="30.5" rx="4.1" ry="4.5"/>
			</g>
		</g>
	</g>
</g>
</svg>
