<?xml version="1.0" encoding="utf-8"?>
<!-- Generator: Adobe Illustrator 21.1.0, SVG Export Plug-In . SVG Version: 6.00 Build 0)  -->
<svg version="1.1" id="Capa_1" xmlns="http://www.w3.org/2000/svg" xmlns:xlink="http://www.w3.org/1999/xlink" x="0px" y="0px"
	 viewBox="0 0 485.2 485.2" style="enable-background:new 0 0 485.2 485.2;" xml:space="preserve">
<style type="text/css">
	.st0{fill:#511DA0;}
</style>
<title>dislike [#1387]</title>
<desc>Created with Sketch.</desc>
<path class="st0" d="M242.6,11.6c-127.6,0-231,103.4-231,231s103.4,231,231,231s231-103.4,231-231S370.2,11.6,242.6,11.6z
	 M301.1,287.5L276.2,373c-2.3,14.5-15.4,25.2-30.8,25.2c-17.2,0-31.2-13.3-31.2-29.7v-80.6H138c-25.5,0-44.3-22.6-38.6-46.3
	l25.2-90.1c4.1-17.1,20.1-29.1,38.6-29.1h137.9V287.5z M388,287.8h-57.9V122.4H388V287.8z"/>
</svg>
