<?xml version="1.0" encoding="utf-8"?>
<!-- Generator: Adobe Illustrator 21.1.0, SVG Export Plug-In . SVG Version: 6.00 Build 0)  -->
<svg version="1.1" id="Capa_1" xmlns="http://www.w3.org/2000/svg" xmlns:xlink="http://www.w3.org/1999/xlink" x="0px" y="0px"
	 viewBox="0 0 485.2 485.2" style="enable-background:new 0 0 485.2 485.2;" xml:space="preserve">
<style type="text/css">
	.st0{fill:#1A5775;}
</style>
<g>
	<path class="st0" d="M373.6,275.9c-20.7-15-39.8-15.5-60.9-1.7c-2.9,1.9-5.7,3.9-8.6,5.7c-21.4,12.8-44.3,18.9-69.4,17
		c-23.6-1.8-44.9-10-63.2-24.6c-15.7-12.5-31.2-9.6-47.3-2.5c-20.5,9-32.2,26-40.1,45.8c-12,29.8-15.3,61.2-14.4,93.1
		c0.4,13.5,3.9,26,12.3,36.8c14.1,18,33.7,23.5,55.4,23.5c35.1,0.1,70.2,0,105.3,0c34.8,0,69.7,0.1,104.5-0.1
		c6.3,0,12.7-0.5,18.9-1.4c27.8-4.2,48.7-25.4,50.7-51.8c2.3-30.3-0.8-60.1-9.9-89.1C400.7,306.6,391.2,288.5,373.6,275.9z"/>
	<path class="st0" d="M243.8,278.9c52.7-0.2,95.1-43.1,94.5-95.5c-0.6-53-42.9-94.8-95.6-94.4c-52.5,0.4-94.4,42.8-94.1,95.1
		C148.9,237,191.2,279.1,243.8,278.9z"/>
	<path class="st0" d="M89.2,276.2c16.6-18.4,37.4-27.6,63.5-29.2c-17-24.6-22.1-50.7-19.3-78.6c-8.3,1.5-15.7,3.3-23.2,4.2
		c-24.2,2.8-45.5-6-66.3-16.9c-9.4-5-17.2-3.5-23.2,5.2c-3.3,4.7-6.7,10-7.5,15.5c-3,20-5.9,40.1-6.9,60.2
		C5.1,259.4,17,273.7,39.7,277c14.5,2.1,29.4,1.4,44.1,1.8C85.6,278.8,88,277.6,89.2,276.2z"/>
	<path class="st0" d="M479.6,208.7c-2.6-14.9-5.5-30.1-11.2-44c-5.2-12.8-14.9-14.5-27.1-8.1c-21.3,11.1-43.3,19.4-68,15.7
		c-6.4-1-12.7-2.6-18.3-3.7c-1.3,13.6-1.1,27.2-4.1,40c-3.1,13.1-9.3,25.4-14.3,38.5c28.4,3.5,39.1,8.6,60.6,28.9
		c1.4,1.3,3.5,2.9,5.2,2.9c15.2-0.3,30.7,0.4,45.7-1.9c21-3.1,32.1-17.1,32.6-38.2C481,228.6,481.4,218.4,479.6,208.7z"/>
	<path class="st0" d="M98,151.9c33.6,2.4,63.9-25.1,66-59.8c2.1-34.6-24.6-64.2-60.2-66.3c-34.2-2.1-65.6,25.8-65.9,61.3
		C35.7,120.2,62.9,149.4,98,151.9z"/>
	<path class="st0" d="M383.2,151.9c33.3,2.3,63.2-24.5,65.9-59.1c2.6-34.4-23.9-64.4-59.5-67c-35.3-2.5-66.3,26.5-66.5,60.6
		C320.7,120.1,347.7,149.5,383.2,151.9z"/>
</g>
</svg>
