<?xml version="1.0" encoding="utf-8"?>
<!-- Generator: Adobe Illustrator 21.0.2, SVG Export Plug-In . SVG Version: 6.00 Build 0)  -->
<svg version="1.1" id="Capa_1" xmlns="http://www.w3.org/2000/svg" xmlns:xlink="http://www.w3.org/1999/xlink" x="0px" y="0px"
	 viewBox="0 0 485.2 485.2" style="enable-background:new 0 0 485.2 485.2;" xml:space="preserve">
<style type="text/css">
	.st0{fill:#511DA0;}
</style>
<g>
	<path class="st0" d="M262.9,115.5h-39.8c-3.7,0-6.6,3-6.6,6.6c0,3.7,3,6.6,6.6,6.6h39.8c3.7,0,6.6-3,6.6-6.6
		C269.5,118.5,266.6,115.5,262.9,115.5z"/>
	<path class="st0" d="M242.6,11.6c-127.6,0-231,103.4-231,231s103.4,231,231,231s231-103.4,231-231S370.2,11.6,242.6,11.6z
		 M335.8,387.4c0,3.7-3,6.6-6.6,6.6H156.8c-3.7,0-6.6-3-6.6-6.6V188.5c0-3.7,3-6.6,6.6-6.6h172.4c3.7,0,6.6,3,6.6,6.6V387.4z
		 M362.3,148.7c0,3.7-3,6.6-6.6,6.6H130.3c-3.7,0-6.6-3-6.6-6.6v-13.3c0-3.7,3-6.6,6.6-6.6h53c3.7,0,6.6-3,6.6-6.6V95.6
		c0-3.7,3-6.6,6.6-6.6h92.8c3.7,0,6.6,3,6.6,6.6v26.5c0,3.7,3,6.6,6.6,6.6h53c3.7,0,6.6,3,6.6,6.6V148.7z"/>
</g>
<path class="st0" d="M194.4,346.9V225.6c0-3.5,2.9-6.4,6.4-6.4h14.4c3.5,0,6.4,2.9,6.4,6.4v121.4c0,3.5-2.9,6.4-6.4,6.4h-14.4
	C197.3,353.4,194.4,350.5,194.4,346.9z"/>
<path class="st0" d="M266.5,346.9V225.6c0-3.5,2.9-6.4,6.4-6.4h14.4c3.5,0,6.4,2.9,6.4,6.4v121.4c0,3.5-2.9,6.4-6.4,6.4h-14.4
	C269.4,353.4,266.5,350.5,266.5,346.9z"/>
</svg>
