<?xml version="1.0" encoding="utf-8"?>
<!-- Generator: Adobe Illustrator 21.0.2, SVG Export Plug-In . SVG Version: 6.00 Build 0)  -->
<svg version="1.1" id="Layer_1" xmlns="http://www.w3.org/2000/svg" xmlns:xlink="http://www.w3.org/1999/xlink" x="0px" y="0px"
	 viewBox="0 0 75 75" enable-background="new 0 0 75 75" xml:space="preserve">
<g id="fundal">
	<g id="Layer_1_1_">
		<g>
			<circle fill="#EFE3D5" cx="37.8" cy="37.8" r="35.5"/>
		</g>
	</g>
	<path opacity="0.1" enable-background="new    " d="M37.8,4.7v66.2c18.3,0,33.1-14.8,33.1-33.1S56.1,4.7,37.8,4.7z"/>
</g>
<g id="video" display="none">
	<g display="inline">
		<path id="Shape" fill="#E24B35" d="M57.8,50.1c0,1.4-1.2,2.6-2.6,2.6l0,0H20.4c-1.4,0-2.6-1.2-2.6-2.6l0,0V24.9
			c0-1.4,1.2-2.6,2.6-2.6h34.8c1.4,0,2.6,1.2,2.6,2.6C57.8,24.9,57.8,50.1,57.8,50.1z"/>
		<path id="shadow" fill-opacity="0.14" d="M32.7,29.4l-14.9,15v5.7c0,1.4,1.1,2.6,2.6,2.6l0,0h10.7l14.9-15l0,0l-13.2,8.1
			L32.7,29.4"/>
		<path id="Shape-2" fill="#FFFFFF" d="M32.6,29.4v16.3l13.3-8.1L32.6,29.4z"/>
		<path id="shadow-2" fill-opacity="0.1" d="M57.8,37.5h-40v12.6c0,1.4,1.2,2.6,2.6,2.6l0,0h34.8c1.4,0,2.6-1.2,2.6-2.6l0,0
			L57.8,37.5"/>
	</g>
</g>
<g id="forum" display="none">
	<defs>
		<polygon id="SVGID_1_" points="98.9,37.6 55.4,81.1 45.6,68.8 76.6,37.8 		"/>
	</defs>
	<clipPath id="SVGID_2_" display="inline">
		<use xlink:href="#SVGID_1_"  overflow="visible"/>
	</clipPath>
	<g display="inline" clip-path="url(#SVGID_2_)">
		<g>
			<defs>
				<rect id="SVGID_3_" x="50" y="37.5" width="75" height="27.6"/>
			</defs>
			<clipPath id="SVGID_4_">
				<use xlink:href="#SVGID_3_"  overflow="visible"/>
			</clipPath>
			<path clip-path="url(#SVGID_4_)" fill="#65895D" d="M87.4,20.5c-11.9,0-21.4,2-21.4,16.4c0,9.1,4,13.3,9.9,15.1v6.5l5.3-5.4
				c2,0.2,4.1,0.3,6.3,0.3c11.9,0,21.5-2,21.5-16.4S99.3,20.5,87.4,20.5z M79.2,39.5c-1.4,0-2.6-1.2-2.6-2.6s1.2-2.6,2.6-2.6
				c1.4,0,2.6,1.2,2.6,2.6S80.6,39.5,79.2,39.5z M87.4,39.5c-1.4,0-2.6-1.2-2.6-2.6s1.2-2.6,2.6-2.6s2.6,1.2,2.6,2.6
				S88.9,39.5,87.4,39.5z M95.7,39.5c-1.4,0-2.6-1.2-2.6-2.6s1.2-2.6,2.6-2.6c1.4,0,2.6,1.2,2.6,2.6S97.1,39.5,95.7,39.5z"/>
		</g>
	</g>
</g>
<g id="support_1_" display="none">
	<g display="inline">
		<path fill="#C56794" d="M105.3,18.7L78.5,45.5l4.1,4.1C82.6,49.6,104.7,47.8,105.3,18.7z"/>
		<path fill="#7F67AE" d="M95.4,42.8l-9.6,4.7c0,0,1.3,2.1,1.7,9.5l9.6-9.6C97.1,47.3,96.7,45,95.4,42.8z"/>
		
			<rect x="78.8" y="45.4" transform="matrix(0.7071 -0.7071 0.7071 0.7071 -10.6244 70.4827)" fill="#5B4C84" width="1.9" height="5.4"/>
		<path fill="#D593C7" d="M105.3,18.7L78.5,45.5l-4.1-4.1C74.3,41.4,76.2,19.2,105.3,18.7z"/>
		<path fill="#7F67AE" d="M81.2,28.6l-4.7,9.6c0,0-2.1-1.3-9.5-1.7l9.6-9.6C76.7,26.9,79,27.3,81.2,28.6z"/>
		
			<rect x="75" y="41.5" transform="matrix(0.7071 -0.7071 0.7071 0.7071 -9.0087 66.612)" fill="#8069AC" width="1.9" height="5.4"/>
		<path fill="#EF7B99" d="M74.3,43.9l2.9,2.9l2.9,2.9c-2.1,2.4-5.6,3.9-5.6,3.9c0.8-0.8,1.1-1.3,1.1-1.3c-3,2-6.9,3.1-6.9,3.1
			s1.1-3.9,3.1-6.9c0,0-0.5,0.3-1.3,1.1C70.3,49.6,71.9,46,74.3,43.9z"/>
		<path fill="#F5AE7F" d="M74.9,44.5l2.3,2.3l2.3,2.3c-1.2,1.3-2.7,1.2-2.7,1.2c0.5-0.2,0.6-0.6,0.6-0.6c-1.6,0.8-3.8,0.7-3.8,0.7
			s-0.1-2.2,0.7-3.8c0,0-0.4,0.2-0.6,0.6C73.6,47.3,73.5,45.8,74.9,44.5z"/>
		
			<ellipse transform="matrix(0.7071 -0.7071 0.7071 0.7071 5.8334 75.0678)" fill="#EFE3D5" cx="93.5" cy="30.5" rx="4.1" ry="4.5"/>
	</g>
</g>
<g id="info">
	<g>
		<g>
			<ellipse fill="#57B2EA" cx="38.3" cy="38.6" rx="22" ry="18.9"/>
			<g>
				<g>
					<defs>
						<rect id="SVGID_5_" x="9.2" y="38.6" width="56.7" height="22.9"/>
					</defs>
					<clipPath id="SVGID_6_">
						<use xlink:href="#SVGID_5_"  overflow="visible"/>
					</clipPath>
					<ellipse clip-path="url(#SVGID_6_)" fill="#2894E6" cx="38.2" cy="38.6" rx="22" ry="18.9"/>
				</g>
			</g>
		</g>
		<path opacity="0.15" enable-background="new    " d="M39.9,45.8L35,35.4l-3.8,3.2L19.4,48.7c2.5,3.3,6.1,6,10.5,7.4l14.6-12.6
			L39.9,45.8z"/>
		<g>
			<path fill="#FFFFFF" d="M46,42.2c0,0-5.2,6.2-7.7,6.2c-2.7,0-3.4-3.2-3.4-6.4c0-2.7,0.1-4.8,0.1-5.9c0-1.1,0.6-1.2,0.6-1.2
				c1.1-0.5,3.7-0.7,4.1-0.7c0.6,0,0.7,0.3,0.7,0.7c0,1,0,0.8-0.1,7.1c0,0.7,0,1.6,1.1,1.7c1.4,0,2.7-1.6,3.8-3.1
				c0.1-0.1,0.1-0.1,0.2-0.1c0.4,0,0.6,0.8,0.6,1.4C46.1,42,46.1,42.1,46,42.2z M38.5,32.4c-1.7,0-3.1-1.2-3.1-2.7s1.4-2.7,3.1-2.7
				c1.7,0,3.1,1.2,3.1,2.7C41.6,31.3,40.2,32.4,38.5,32.4z"/>
		</g>
	</g>
</g>
</svg>
