<?xml version="1.0" encoding="utf-8"?>
<!-- Generator: Adobe Illustrator 21.1.0, SVG Export Plug-In . SVG Version: 6.00 Build 0)  -->
<svg version="1.1" id="Layer_1" xmlns="http://www.w3.org/2000/svg" xmlns:xlink="http://www.w3.org/1999/xlink" x="0px" y="0px"
	 viewBox="0 0 200 200" style="enable-background:new 0 0 200 200;" xml:space="preserve">
<style type="text/css">
	.st0{display:none;fill:#28241F;}
	.st1{fill:#511DA0;}
</style>
<circle class="st0" cx="100.4" cy="100.2" r="98.6"/>
<g>
	<path class="st1" d="M107.6,70h-23c-17.4,0-32.1,14-32.1,34c0,20.1,14.8,33.1,31.9,33.1h23.3L107.6,70"/>
	<path class="st1" d="M31.8,162.1V45.6h51.6c33.6,0,60.7,23.5,60.7,58.7c0,35.1-27,57.7-60.4,57.7H31.8 M94.7,9
		c-4.2,0-8.4,1.6-11.6,4.8L65,31.9H32c-9,0-16.4,7.4-16.4,16.4v110.4c0,9,7.4,16.4,16.4,16.4h33l18.1,18.1c3.2,3.2,7.4,4.8,11.6,4.8
		s8.4-1.6,11.6-4.8l78.1-78.1c6.4-6.4,6.4-16.8,0-23.2l-78.1-78.1C103.1,10.6,98.9,9,94.7,9"/>
</g>
</svg>
