<?xml version="1.0" encoding="utf-8"?>
<!-- Generator: Adobe Illustrator 21.0.2, SVG Export Plug-In . SVG Version: 6.00 Build 0)  -->
<svg version="1.1" id="Capa_1" xmlns="http://www.w3.org/2000/svg" xmlns:xlink="http://www.w3.org/1999/xlink" x="0px" y="0px"
	 viewBox="0 0 485.2 485.2" style="enable-background:new 0 0 485.2 485.2;" xml:space="preserve">
<style type="text/css">
	.st0{fill:#511DA0;}
</style>
<g>
	<path class="st0" d="M159,362.8h169.5V235.6H159V362.8z M190.8,267.4h106v21.2h-106V267.4z M190.8,309.8h106V331h-106V309.8z"/>
	<rect x="159" y="140.3" class="st0" width="169.5" height="42.4"/>
	<path class="st0" d="M243.8,11.6c-127.6,0-231,103.4-231,231s103.4,231,231,231s231-103.4,231-231S371.4,11.6,243.8,11.6z
		 M392.1,309.8h-31.8v63.6c0,11.7-9.5,21.2-21.2,21.2H148.4c-11.7,0-21.2-9.5-21.2-21.2v-63.6H95.5V182.6h31.8v-53
		c0-11.7,9.5-21.2,21.2-21.2h190.7c11.7,0,21.2,9.5,21.2,21.2v53h31.8V309.8z"/>
</g>
</svg>
