<?xml version="1.0" encoding="utf-8"?>
<!-- Generator: Adobe Illustrator 21.1.0, SVG Export Plug-In . SVG Version: 6.00 Build 0)  -->
<svg version="1.1" id="Layer_1" xmlns="http://www.w3.org/2000/svg" xmlns:xlink="http://www.w3.org/1999/xlink" x="0px" y="0px"
	 viewBox="0 0 650.7 130" style="enable-background:new 0 0 650.7 130;" xml:space="preserve">
<style type="text/css">
	.st0{opacity:0.8;enable-background:new    ;}
	.st1{fill:#FDB913;}
</style>
<g>
	<path class="st0" d="M119.2,57.4L67.4,5.6c-4.2-4.2-11.1-4.2-15.3,0l-12,12H18.2c-6,0-10.9,4.9-10.9,10.9v73.2
		c0,6,4.9,10.9,10.9,10.9h21.9l12,12c4.2,4.2,11.1,4.2,15.3,0l51.8-51.8C123.4,68.5,123.4,61.6,119.2,57.4z"/>
	<path class="st1" d="M52.3,26.7H18.1v77.2h34.5c22.1,0,40-15,40-38.3S74.5,26.7,52.3,26.7z M68.3,87.4H52.9
		c-11.3,0-21.1-8.7-21.1-22s9.8-22.5,21.3-22.5h15.2C68.3,42.9,68.3,87.4,68.3,87.4z"/>
</g>
<g>
	<path class="st1" d="M182.4,36.1c16.9,0,30.5,12.1,30.5,29.8c0,17.6-13.6,29.3-30.4,29.3h-25.6v-59H182.4z M182.6,84.2
		c9.8,0,18.2-6.8,18.2-18.3S192.3,47,182.4,47h-13.7v37.1H182.6z"/>
	<path class="st1" d="M264.7,84.2v11h-42.3v-59h41.8v11h-30v12.6h23.7v10.3h-23.7v14.3H264.7z"/>
	<path class="st1" d="M335,36.1v59h-11.6V76.7c0-12.4,0.4-20.9,0.3-20.9h-0.1c-0.1,0-4.2,7.3-5.2,8.9l-9.2,15.9h-6.1L294,64.7
		c-1.1-1.7-5.2-8.9-5.3-8.9h-0.1c-0.1,0,0.4,8.5,0.4,20.9v18.5h-11.6v-59h11l12.2,20.2c4.6,7.5,5.3,9.4,5.4,9.4h0.1
		c0.1,0,0.8-1.9,5.4-9.4l12.3-20.2H335z"/>
	<path class="st1" d="M375.2,34.9c17,0,30.7,12.9,30.7,30.7c0,17.8-13.7,30.7-30.7,30.7c-17,0-30.6-12.9-30.6-30.7
		C344.6,47.8,358.2,34.9,375.2,34.9z M375.2,84.8c10.9,0,18.5-7.8,18.5-19.1c0-11.4-7.6-19.1-18.5-19.1c-10.8,0-18.4,7.8-18.4,19.1
		C356.8,76.9,364.4,84.8,375.2,84.8z"/>
	<path class="st1" d="M440.9,36.1c16.9,0,30.5,12.1,30.5,29.8c0,17.6-13.6,29.3-30.4,29.3h-25.6v-59H440.9z M441.1,84.2
		c9.8,0,18.2-6.8,18.2-18.3S450.9,47,440.9,47h-13.7v37.1H441.1z"/>
	<path class="st1" d="M527,36.1l-22.8,32v27.1h-11.6V68l-22.7-32h13.2l12.1,17c1.6,2.4,3.1,4.4,3.2,4.4h0.1c0.1,0,1.6-2,3.2-4.4
		l12.1-17H527z"/>
	<path class="st1" d="M585.6,36.1v59h-11l-16.8-22.8c-5.3-7.3-11.8-16.5-11.9-16.5h-0.1c-0.1,0,0.1,8.5,0.1,20.2v19.1h-11.7v-59h11
		l17.1,23c4,5.3,11.5,15.9,11.6,15.9h0.1c0.1,0-0.1-9.6-0.1-19.6V36.1H585.6z"/>
	<path class="st1" d="M641.9,84.2v11h-42.3v-59h41.8v11h-30v12.6h23.7v10.3h-23.7v14.3H641.9z"/>
</g>
</svg>
