<?xml version="1.0" encoding="utf-8"?>
<!-- Generator: Adobe Illustrator 21.1.0, SVG Export Plug-In . SVG Version: 6.00 Build 0)  -->
<svg version="1.1" id="Facebook" xmlns="http://www.w3.org/2000/svg" xmlns:xlink="http://www.w3.org/1999/xlink" x="0px" y="0px"
	 viewBox="0 0 128 128" style="enable-background:new 0 0 128 128;" xml:space="preserve">
<style type="text/css">
	.st0{fill:#074065;}
	.st1{fill:#0A5077;}
</style>
<rect id="facebook-back" class="st0" width="128" height="128"/>
<path class="st1" d="M19.4,19.8c-2.1,0-4.3,0-6.4,0c0.3-0.6,0.8-1.1,1.4-1.6c0,0,0,0,0,0c-0.1,0.1-0.2,0.1-0.3,0.2c0,0,0,0,0,0
	c0.1-0.1,0.2-0.2,0.3-0.3c-0.3-0.1-0.6,0-0.8,0.2c-0.1,0.1-0.3,0.2-0.4,0.3c-0.3,0-0.5,0.2-0.7,0.4c-0.4,0.4-0.9,0.5-1.4,0.6
	c-0.1,0-0.1,0-0.2,0c-0.6,0-1.2,0.1-1.8,0.2c-0.5,0.1-1,0.1-1.6,0.1c0.1-0.1,0.1-0.1,0.2-0.2c-0.1,0.1-0.3,0.1-0.4,0.2
	c0-0.1,0-0.1,0.1-0.2c0.2-0.1,0.4-0.2,0.6-0.3c0.7-0.3,1.4-0.4,2.1-0.5c0.9-0.1,1.7-0.4,2.4-1.1c0.1-0.1,0.2-0.3,0.3-0.4
	c0,0,0-0.1,0-0.2c0,0,0,0,0-0.1c-1,1.1-2.2,1.5-3.7,1.5c0.2-0.1,0.3-0.2,0.5-0.3c-0.1,0-0.1,0-0.2,0c-0.1,0-0.1,0-0.2,0
	c0-0.1,0.1-0.1,0.1-0.1c0.3-0.2,0.6-0.4,0.9-0.6c0.1-0.1,0.4-0.1,0.4-0.3c0.2-0.3,0.5-0.3,0.8-0.5c0,0,0.1,0,0.1-0.1
	c-0.1-0.2,0.2-0.5,0.4-0.7c0.1-0.4,0.2-0.7,0.3-1.1c0,0,0,0-0.1,0c-0.5,0.4-1,0.6-1.6,0.6c-0.3,0-0.5,0-0.8-0.2
	c-0.1-0.1-0.2-0.2-0.3-0.2c-0.6-0.3-1.3-0.5-2-0.6c-0.1,0-0.2,0-0.2,0C7,14.7,6.8,14.8,6.7,15c-0.1,0.1-0.1,0.2-0.2,0.4
	c-0.1,0.1-0.2,0.3-0.4,0.4c0,0,0,0,0,0c0-0.1,0-0.1,0.1-0.2c-0.1,0.1-0.2,0.1-0.3,0.1c-0.3,0.3-0.7,0.5-1,0.8
	c-0.3,0.3-0.5,0.6-0.8,0.8c0,0,0-0.1,0-0.1c0.1-0.2,0.3-0.4,0.4-0.6c0.2-0.4,0.4-0.7,0.8-1c0.5-0.4,0.9-0.8,1.3-1.2
	c0,0,0.1,0,0.2-0.1c0,0,0-0.1-0.1-0.1c-0.1,0-0.3,0-0.4,0c0,0,0,0,0-0.1c0.7-0.2,1.5-0.4,2.2-0.6c-0.9,0.1-1.9,0.3-2.7,0.7
	c0-0.1,0-0.2,0.1-0.2c0.4-0.5,0.9-0.8,1.5-0.8c0.9,0,1.8,0.1,2.7,0.3c0.1,0,0.2,0,0.2,0.1c0.2,0.3,0.5,0.3,0.8,0.3
	c0.1-0.1,0.2-0.1,0.3-0.2c0.1,0,0.2-0.1,0.3-0.1c0-0.1-0.1-0.2-0.1-0.3c-0.1-0.1-0.2-0.2-0.3-0.3c0,0,0.1-0.1,0.1-0.1
	c0.1,0.1,0.2,0.2,0.3,0.3c0.2,0.2,0.5,0.4,0.8,0.4c0.2,0,0.2,0,0.2-0.2c-0.1-0.2-0.2-0.3-0.4-0.5c-0.3-0.4-0.6-0.8-0.7-1.3
	c-0.1-0.6-0.2-1.2-0.3-1.7c-0.2-0.7-0.3-1.4,0.2-2.1c0.1-0.2,0.2-0.4,0.4-0.6c0.2-0.3,0.5-0.6,0.7-0.9c0.1-0.1,0.2-0.3,0.3-0.4
	c0.4-0.7,0.9-1.3,1.6-1.5c0.2-0.1,0.3-0.1,0.5-0.2c1.7-0.7,3.4-1.1,5.3-0.9c1.2,0.2,2.3,0.6,3.2,1.5c0.3,0.3,0.3,0.5,0.1,0.9
	c-0.1,0.2-0.3,0.3-0.7,0.3c-0.1,0-0.2,0-0.3,0c0.3,0.2,0.6,0.5,0.9,0.7c0.1,0.1,0.1,0.1,0.2,0.2c0.2,0,0.3,0.1,0.2,0.4
	c0.1,0,0.1-0.1,0.2-0.2c0.1-0.2,0.2-0.2,0.3,0c0.1,0.1,0.1,0.3,0,0.4c-0.1,0.1-0.1,0.2-0.2,0.2c-0.1,0.1-0.1,0.2-0.1,0.4
	C24,8.7,24.1,9,24.2,9.4c0.2,0.6,0.4,1.2,0.2,1.9c0,0.2,0,0.5,0.1,0.7c0.1,0.3,0.3,0.5,0.5,0.8c0.2,0.3,0.4,0.7,0.6,1
	c0.1,0.3,0,0.5-0.3,0.6c-0.1,0-0.2,0.1-0.3,0.1c-0.2,0-0.2,0.2-0.2,0.3c0,0.1,0.1,0.2,0.1,0.3c0.1,0.2,0.1,0.3-0.1,0.5
	c-0.1,0.1-0.2,0.1-0.3,0.2c0.3,0.2,0.4,0.6,0.1,0.8c-0.2,0.1-0.2,0.2-0.1,0.4c0.2,0.4,0,1.1-0.5,1.2c-0.3,0.1-0.5,0.1-0.8,0.1
	c-0.6-0.1-1.1-0.2-1.7-0.3c-0.3,0-0.6,0-0.9,0.2C20,18.6,19.6,19.1,19.4,19.8z M22.7,12.5C22.7,12.5,22.7,12.5,22.7,12.5
	c0.1,0,0.3,0,0.4,0c0.3,0,0.3-0.1,0.3-0.3c0-0.2,0-0.5,0.3-0.6c0,0,0.1-0.1,0.1-0.1c-0.1-0.2,0.1-0.2,0.1-0.3
	c0.2-0.2,0.1-0.4-0.1-0.5c-0.3-0.1-0.6-0.1-0.9,0c-0.3,0.1-0.6,0.2-0.8,0.3c0,0,0,0,0,0.1c0.1,0,0.2,0,0.2,0c0.3,0,0.6,0,1,0
	c0.1,0,0.1,0.1,0.2,0.1c0,0.1-0.1,0.1-0.1,0.2c-0.3,0.2-0.7,0.5-1,0.7c0.1,0,0.1,0.1,0.2,0.1c0.1,0,0.2,0.1,0.3,0.1
	c0,0,0.1,0.1,0.1,0.1c0,0.1-0.1,0.1-0.1,0.1C22.8,12.5,22.8,12.5,22.7,12.5z"/>
</svg>
